<?xml version="1.0" encoding="UTF-8" standalone="no"?>
<!DOCTYPE svg PUBLIC "-//W3C//DTD SVG 1.1//EN" "http://www.w3.org/Graphics/SVG/1.1/DTD/svg11.dtd">
<svg xmlns="http://www.w3.org/2000/svg" version="1.1" viewBox="0.00 0.00 174.00 146.00">
<g stroke-width="2.00" fill="none" stroke-linecap="butt">
<path stroke="#3d79ef" vector-effect="non-scaling-stroke" d="
  M 159.95 63.02
  L 150.74 61.10"
/>
<path stroke="#3d79ef" vector-effect="non-scaling-stroke" d="
  M 112.40 48.29
  L 102.50 45.42"
/>
<path stroke="#3681ef" vector-effect="non-scaling-stroke" d="
  M 73.13 28.31
  Q 72.20 28.69 71.69 28.10
  Q 71.36 27.73 70.92 27.48
  Q 70.06 27.00 69.16 27.18
  A 0.62 0.61 54.8 0 1 68.71 27.10
  Q 65.67 25.14 61.64 25.14"
/>
<path stroke="#723ae9" vector-effect="non-scaling-stroke" d="
  M 26.20 62.60
  L 17.59 59.84"
/>
<path stroke="#7932e9" vector-effect="non-scaling-stroke" d="
  M 121.93 92.71
  L 122.44 92.84
  Q 123.08 93.01 122.61 93.48
  L 122.09 94.00
  Q 121.75 94.34 122.10 94.67
  Q 125.24 97.65 129.01 99.70
  A 2.84 0.70 4.5 0 0 130.15 100.08
  Q 130.95 100.27 130.46 101.37"
/>
</g>
<path fill="#1d9ef3" d="
  M 159.95 63.02
  L 150.74 61.10
  Q 143.68 42.57 124.33 43.80
  C 119.97 44.08 116.12 46.16 112.40 48.29
  L 102.50 45.42
  Q 107.55 40.08 114.07 37.12
  Q 114.51 36.92 114.18 36.56
  Q 97.23 18.48 73.13 28.31
  Q 72.20 28.69 71.69 28.10
  Q 71.36 27.73 70.92 27.48
  Q 70.06 27.00 69.16 27.18
  A 0.62 0.61 54.8 0 1 68.71 27.10
  Q 65.67 25.14 61.64 25.14
  C 82.09 9.95 109.30 13.66 123.94 34.27
  A 1.56 1.55 -18.9 0 0 125.28 34.92
  C 142.41 34.14 157.65 45.71 159.95 63.02
  Z"
/>
<path fill="#4f63ea" d="
  M 73.13 28.31
  Q 67.35 31.63 62.86 36.59
  Q 62.51 36.98 62.99 37.20
  C 72.02 41.22 77.23 47.83 83.20 56.24
  Q 83.45 56.60 83.18 56.94
  L 78.43 62.92
  Q 78.04 63.41 77.64 62.93
  Q 73.63 58.21 69.67 53.60
  Q 57.19 39.10 40.92 45.58
  Q 35.20 47.86 31.50 52.06
  Q 27.34 56.78 26.20 62.60
  L 17.59 59.84
  C 22.01 44.26 35.79 33.73 52.08 34.93
  Q 52.59 34.96 52.89 34.55
  Q 56.76 29.16 61.64 25.14
  Q 65.67 25.14 68.71 27.10
  A 0.62 0.61 54.8 0 0 69.16 27.18
  Q 70.06 27.00 70.92 27.48
  Q 71.36 27.73 71.69 28.10
  Q 72.20 28.69 73.13 28.31
  Z"
/>
<path fill="#5d53ea" d="
  M 112.40 48.29
  Q 108.91 51.66 107.80 53.05
  Q 95.19 68.80 82.57 84.58
  Q 82.24 85.00 81.71 85.00
  L 71.52 85.00
  Q 70.74 85.00 71.23 84.40
  L 102.50 45.42
  L 112.40 48.29
  Z"
/>
<path fill="#9511e7" d="
  M 17.59 59.84
  L 26.20 62.60
  Q 23.78 76.22 32.28 84.96
  Q 39.75 92.65 51.00 92.68
  Q 86.60 92.77 121.93 92.71
  L 122.44 92.84
  Q 123.08 93.01 122.61 93.48
  L 122.09 94.00
  Q 121.75 94.34 122.10 94.67
  Q 125.24 97.65 129.01 99.70
  A 2.84 0.70 4.5 0 0 130.15 100.08
  Q 130.95 100.27 130.46 101.37
  Q 90.96 101.67 51.26 101.56
  C 28.48 101.50 12.49 82.09 17.59 59.84
  Z"
/>
<path fill="#5d53ea" d="
  M 150.74 61.10
  L 159.95 63.02
  Q 161.73 72.74 157.94 80.98
  Q 152.44 92.94 141.52 98.30
  Q 137.53 100.26 130.46 101.37
  Q 130.95 100.27 130.15 100.08
  A 2.84 0.70 4.5 0 1 129.01 99.70
  Q 125.24 97.65 122.10 94.67
  Q 121.75 94.34 122.09 94.00
  L 122.61 93.48
  Q 123.08 93.01 122.44 92.84
  L 121.93 92.71
  Q 141.86 94.26 149.62 77.87
  Q 153.15 70.43 150.74 61.10
  Z"
/>
</svg>
